# Smooth visual-only banana mesh for BlindTouch demo rendering.
# Units are meters; the policy still contacts the simple capsule proxy.
v -0.006000 0.006600 -0.044000
v -0.003950 0.006365 -0.045062
v -0.002146 0.005482 -0.045997
v -0.000790 0.004022 -0.046700
v -0.000017 0.002128 -0.047100
v 0.000126 0.000000 -0.047175
v -0.000330 -0.002128 -0.046938
v -0.001297 -0.004022 -0.046437
v -0.002652 -0.005482 -0.045735
v -0.004263 -0.006365 -0.044900
v -0.006000 -0.006600 -0.044000
v -0.007737 -0.006189 -0.043100
v -0.009348 -0.005197 -0.042265
v -0.010703 -0.003737 -0.041563
v -0.011670 -0.001951 -0.041062
v -0.012126 -0.000000 -0.040825
v -0.011983 0.001951 -0.040900
v -0.011210 0.003737 -0.041300
v -0.009854 0.005197 -0.042003
v -0.008050 0.006189 -0.042938
v -0.003720 0.007664 -0.039600
v -0.001314 0.007391 -0.040781
v 0.000805 0.006366 -0.041821
v 0.002396 0.004671 -0.042603
v 0.003304 0.002471 -0.043048
v 0.003473 0.000000 -0.043131
v 0.002937 -0.002471 -0.042868
v 0.001801 -0.004671 -0.042311
v 0.000210 -0.006366 -0.041529
v -0.001681 -0.007391 -0.040601
v -0.003720 -0.007664 -0.039600
v -0.005759 -0.007187 -0.038599
v -0.007650 -0.006035 -0.037671
v -0.009241 -0.004339 -0.036889
v -0.010377 -0.002266 -0.036332
v -0.010913 -0.000000 -0.036069
v -0.010744 0.002266 -0.036152
v -0.009836 0.004339 -0.036597
v -0.008245 0.006035 -0.037379
v -0.006126 0.007187 -0.038419
v -0.001680 0.008638 -0.035200
v 0.001089 0.008330 -0.036408
v 0.003527 0.007175 -0.037472
v 0.005358 0.005264 -0.038271
v 0.006403 0.002785 -0.038727
v 0.006597 0.000000 -0.038812
v 0.005980 -0.002785 -0.038543
v 0.004674 -0.005264 -0.037973
v 0.002843 -0.007175 -0.037174
v 0.000666 -0.008330 -0.036224
v -0.001680 -0.008638 -0.035200
v -0.004026 -0.008100 -0.034176
v -0.006203 -0.006801 -0.033226
v -0.008034 -0.004890 -0.032427
v -0.009340 -0.002554 -0.031857
v -0.009957 -0.000000 -0.031588
v -0.009763 0.002554 -0.031673
v -0.008718 0.004890 -0.032129
v -0.006887 0.006801 -0.032928
v -0.004449 0.008100 -0.033992
v 0.000120 0.009518 -0.030800
v 0.003230 0.009180 -0.031988
v 0.005969 0.007906 -0.033033
v 0.008025 0.005801 -0.033818
v 0.009199 0.003069 -0.034267
v 0.009416 0.000000 -0.034350
v 0.008724 -0.003069 -0.034085
v 0.007257 -0.005801 -0.033525
v 0.005200 -0.007906 -0.032740
v 0.002755 -0.009180 -0.031806
v 0.000120 -0.009518 -0.030800
v -0.002515 -0.008925 -0.029794
v -0.004960 -0.007495 -0.028860
v -0.007017 -0.005389 -0.028075
v -0.008484 -0.002814 -0.027515
v -0.009176 -0.000000 -0.027250
v -0.008959 0.002814 -0.027333
v -0.007785 0.005389 -0.027782
v -0.005729 0.007495 -0.028567
v -0.002990 0.008925 -0.029612
v 0.001680 0.010304 -0.026400
v 0.005105 0.009937 -0.027521
v 0.008121 0.008559 -0.028508
v 0.010386 0.006279 -0.029249
v 0.011678 0.003322 -0.029672
v 0.011918 0.000000 -0.029751
v 0.011155 -0.003322 -0.029501
v 0.009539 -0.006279 -0.028972
v 0.007274 -0.008559 -0.028231
v 0.004582 -0.009937 -0.027350
v 0.001680 -0.010304 -0.026400
v -0.001222 -0.009662 -0.025450
v -0.003914 -0.008113 -0.024569
v -0.006179 -0.005834 -0.023828
v -0.007795 -0.003046 -0.023299
v -0.008558 -0.000000 -0.023049
v -0.008318 0.003046 -0.023128
v -0.007026 0.005834 -0.023551
v -0.004761 0.008113 -0.024292
v -0.001745 0.009662 -0.025279
v 0.003000 0.010991 -0.022000
v 0.006709 0.010600 -0.023012
v 0.009974 0.009129 -0.023902
v 0.012427 0.006698 -0.024571
v 0.013826 0.003543 -0.024953
v 0.014086 0.000000 -0.025023
v 0.013260 -0.003543 -0.024798
v 0.011510 -0.006698 -0.024321
v 0.009058 -0.009129 -0.023652
v 0.006142 -0.010600 -0.022857
v 0.003000 -0.010991 -0.022000
v -0.000142 -0.010306 -0.021143
v -0.003058 -0.008654 -0.020348
v -0.005510 -0.006223 -0.019679
v -0.007260 -0.003250 -0.019202
v -0.008086 -0.000000 -0.018977
v -0.007826 0.003250 -0.019047
v -0.006427 0.006223 -0.019429
v -0.003974 0.008654 -0.020098
v -0.000709 0.010306 -0.020988
v 0.004080 0.011576 -0.017600
v 0.008036 0.011164 -0.018463
v 0.011519 0.009616 -0.019223
v 0.014135 0.007055 -0.019794
v 0.015628 0.003732 -0.020119
v 0.015904 0.000000 -0.020180
v 0.015023 -0.003732 -0.019988
v 0.013157 -0.007055 -0.019580
v 0.010541 -0.009616 -0.019010
v 0.007432 -0.011164 -0.018331
v 0.004080 -0.011576 -0.017600
v 0.000728 -0.010855 -0.016869
v -0.002381 -0.009115 -0.016190
v -0.004997 -0.006554 -0.015620
v -0.006863 -0.003423 -0.015212
v -0.007744 -0.000000 -0.015020
v -0.007468 0.003423 -0.015081
v -0.005975 0.006554 -0.015406
v -0.003359 0.009115 -0.015977
v 0.000124 0.010855 -0.016737
v 0.004920 0.012055 -0.013200
v 0.009081 0.011626 -0.013881
v 0.012745 0.010013 -0.014480
v 0.015496 0.007346 -0.014931
v 0.017066 0.003886 -0.015188
v 0.017357 0.000000 -0.015235
v 0.016431 -0.003886 -0.015084
v 0.014468 -0.007346 -0.014762
v 0.011716 -0.010013 -0.014312
v 0.008445 -0.011626 -0.013777
v 0.004920 -0.012055 -0.013200
v 0.001395 -0.011304 -0.012623
v -0.001876 -0.009492 -0.012088
v -0.004628 -0.006825 -0.011638
v -0.006591 -0.003564 -0.011316
v -0.007517 -0.000000 -0.011165
v -0.007226 0.003564 -0.011212
v -0.005656 0.006825 -0.011469
v -0.002905 0.009492 -0.011920
v 0.000759 0.011304 -0.012519
v 0.005520 0.012420 -0.008800
v 0.009839 0.011978 -0.009271
v 0.013641 0.010316 -0.009686
v 0.016497 0.007569 -0.009997
v 0.018126 0.004004 -0.010175
v 0.018428 0.000000 -0.010208
v 0.017466 -0.004004 -0.010103
v 0.015429 -0.007569 -0.009881
v 0.012573 -0.010316 -0.009569
v 0.009179 -0.011978 -0.009199
v 0.005520 -0.012420 -0.008800
v 0.001861 -0.011646 -0.008401
v -0.001533 -0.009780 -0.008031
v -0.004389 -0.007032 -0.007719
v -0.006426 -0.003672 -0.007497
v -0.007388 -0.000000 -0.007392
v -0.007086 0.003672 -0.007425
v -0.005457 0.007032 -0.007603
v -0.002601 0.009780 -0.007914
v 0.001201 0.011646 -0.008329
v 0.005880 0.012662 -0.004400
v 0.010302 0.012212 -0.004641
v 0.014196 0.010518 -0.004854
v 0.017120 0.007716 -0.005013
v 0.018789 0.004082 -0.005104
v 0.019098 0.000000 -0.005121
v 0.018114 -0.004082 -0.005067
v 0.016027 -0.007716 -0.004953
v 0.013103 -0.010518 -0.004794
v 0.009627 -0.012212 -0.004604
v 0.005880 -0.012662 -0.004400
v 0.002133 -0.011873 -0.004196
v -0.001343 -0.009970 -0.004006
v -0.004267 -0.007169 -0.003847
v -0.006354 -0.003744 -0.003733
v -0.007338 -0.000000 -0.003679
v -0.007029 0.003744 -0.003696
v -0.005360 0.007169 -0.003787
v -0.002436 0.009970 -0.003946
v 0.001458 0.011873 -0.004159
v 0.006000 0.012760 0.000000
v 0.010463 0.012306 0.000000
v 0.014393 0.010599 0.000000
v 0.017344 0.007776 0.000000
v 0.019028 0.004114 0.000000
v 0.019340 0.000000 0.000000
v 0.018346 -0.004114 0.000000
v 0.016241 -0.007776 0.000000
v 0.013289 -0.010599 0.000000
v 0.009781 -0.012306 0.000000
v 0.006000 -0.012760 0.000000
v 0.002219 -0.011965 0.000000
v -0.001289 -0.010047 0.000000
v -0.004241 -0.007224 0.000000
v -0.006346 -0.003773 0.000000
v -0.007340 -0.000000 0.000000
v -0.007028 0.003773 0.000000
v -0.005344 0.007224 0.000000
v -0.002393 0.010047 0.000000
v 0.001537 0.011965 0.000000
v 0.005880 0.012662 0.004400
v 0.010302 0.012212 0.004641
v 0.014196 0.010518 0.004854
v 0.017120 0.007716 0.005013
v 0.018789 0.004082 0.005104
v 0.019098 0.000000 0.005121
v 0.018114 -0.004082 0.005067
v 0.016027 -0.007716 0.004953
v 0.013103 -0.010518 0.004794
v 0.009627 -0.012212 0.004604
v 0.005880 -0.012662 0.004400
v 0.002133 -0.011873 0.004196
v -0.001343 -0.009970 0.004006
v -0.004267 -0.007169 0.003847
v -0.006354 -0.003744 0.003733
v -0.007338 -0.000000 0.003679
v -0.007029 0.003744 0.003696
v -0.005360 0.007169 0.003787
v -0.002436 0.009970 0.003946
v 0.001458 0.011873 0.004159
v 0.005520 0.012420 0.008800
v 0.009839 0.011978 0.009271
v 0.013641 0.010316 0.009686
v 0.016497 0.007569 0.009997
v 0.018126 0.004004 0.010175
v 0.018428 0.000000 0.010208
v 0.017466 -0.004004 0.010103
v 0.015429 -0.007569 0.009881
v 0.012573 -0.010316 0.009569
v 0.009179 -0.011978 0.009199
v 0.005520 -0.012420 0.008800
v 0.001861 -0.011646 0.008401
v -0.001533 -0.009780 0.008031
v -0.004389 -0.007032 0.007719
v -0.006426 -0.003672 0.007497
v -0.007388 -0.000000 0.007392
v -0.007086 0.003672 0.007425
v -0.005457 0.007032 0.007603
v -0.002601 0.009780 0.007914
v 0.001201 0.011646 0.008329
v 0.004920 0.012055 0.013200
v 0.009081 0.011626 0.013881
v 0.012745 0.010013 0.014480
v 0.015496 0.007346 0.014931
v 0.017066 0.003886 0.015188
v 0.017357 0.000000 0.015235
v 0.016431 -0.003886 0.015084
v 0.014468 -0.007346 0.014762
v 0.011716 -0.010013 0.014312
v 0.008445 -0.011626 0.013777
v 0.004920 -0.012055 0.013200
v 0.001395 -0.011304 0.012623
v -0.001876 -0.009492 0.012088
v -0.004628 -0.006825 0.011638
v -0.006591 -0.003564 0.011316
v -0.007517 -0.000000 0.011165
v -0.007226 0.003564 0.011212
v -0.005656 0.006825 0.011469
v -0.002905 0.009492 0.011920
v 0.000759 0.011304 0.012519
v 0.004080 0.011576 0.017600
v 0.008036 0.011164 0.018463
v 0.011519 0.009616 0.019223
v 0.014135 0.007055 0.019794
v 0.015628 0.003732 0.020119
v 0.015904 0.000000 0.020180
v 0.015023 -0.003732 0.019988
v 0.013157 -0.007055 0.019580
v 0.010541 -0.009616 0.019010
v 0.007432 -0.011164 0.018331
v 0.004080 -0.011576 0.017600
v 0.000728 -0.010855 0.016869
v -0.002381 -0.009115 0.016190
v -0.004997 -0.006554 0.015620
v -0.006863 -0.003423 0.015212
v -0.007744 -0.000000 0.015020
v -0.007468 0.003423 0.015081
v -0.005975 0.006554 0.015406
v -0.003359 0.009115 0.015977
v 0.000124 0.010855 0.016737
v 0.003000 0.010991 0.022000
v 0.006709 0.010600 0.023012
v 0.009974 0.009129 0.023902
v 0.012427 0.006698 0.024571
v 0.013826 0.003543 0.024953
v 0.014086 0.000000 0.025023
v 0.013260 -0.003543 0.024798
v 0.011510 -0.006698 0.024321
v 0.009058 -0.009129 0.023652
v 0.006142 -0.010600 0.022857
v 0.003000 -0.010991 0.022000
v -0.000142 -0.010306 0.021143
v -0.003058 -0.008654 0.020348
v -0.005510 -0.006223 0.019679
v -0.007260 -0.003250 0.019202
v -0.008086 -0.000000 0.018977
v -0.007826 0.003250 0.019047
v -0.006427 0.006223 0.019429
v -0.003974 0.008654 0.020098
v -0.000709 0.010306 0.020988
v 0.001680 0.010304 0.026400
v 0.005105 0.009937 0.027521
v 0.008121 0.008559 0.028508
v 0.010386 0.006279 0.029249
v 0.011678 0.003322 0.029672
v 0.011918 0.000000 0.029751
v 0.011155 -0.003322 0.029501
v 0.009539 -0.006279 0.028972
v 0.007274 -0.008559 0.028231
v 0.004582 -0.009937 0.027350
v 0.001680 -0.010304 0.026400
v -0.001222 -0.009662 0.025450
v -0.003914 -0.008113 0.024569
v -0.006179 -0.005834 0.023828
v -0.007795 -0.003046 0.023299
v -0.008558 -0.000000 0.023049
v -0.008318 0.003046 0.023128
v -0.007026 0.005834 0.023551
v -0.004761 0.008113 0.024292
v -0.001745 0.009662 0.025279
v 0.000120 0.009518 0.030800
v 0.003230 0.009180 0.031988
v 0.005969 0.007906 0.033033
v 0.008025 0.005801 0.033818
v 0.009199 0.003069 0.034267
v 0.009416 0.000000 0.034350
v 0.008724 -0.003069 0.034085
v 0.007257 -0.005801 0.033525
v 0.005200 -0.007906 0.032740
v 0.002755 -0.009180 0.031806
v 0.000120 -0.009518 0.030800
v -0.002515 -0.008925 0.029794
v -0.004960 -0.007495 0.028860
v -0.007017 -0.005389 0.028075
v -0.008484 -0.002814 0.027515
v -0.009176 -0.000000 0.027250
v -0.008959 0.002814 0.027333
v -0.007785 0.005389 0.027782
v -0.005729 0.007495 0.028567
v -0.002990 0.008925 0.029612
v -0.001680 0.008638 0.035200
v 0.001089 0.008330 0.036408
v 0.003527 0.007175 0.037472
v 0.005358 0.005264 0.038271
v 0.006403 0.002785 0.038727
v 0.006597 0.000000 0.038812
v 0.005980 -0.002785 0.038543
v 0.004674 -0.005264 0.037973
v 0.002843 -0.007175 0.037174
v 0.000666 -0.008330 0.036224
v -0.001680 -0.008638 0.035200
v -0.004026 -0.008100 0.034176
v -0.006203 -0.006801 0.033226
v -0.008034 -0.004890 0.032427
v -0.009340 -0.002554 0.031857
v -0.009957 -0.000000 0.031588
v -0.009763 0.002554 0.031673
v -0.008718 0.004890 0.032129
v -0.006887 0.006801 0.032928
v -0.004449 0.008100 0.033992
v -0.003720 0.007664 0.039600
v -0.001314 0.007391 0.040781
v 0.000805 0.006366 0.041821
v 0.002396 0.004671 0.042603
v 0.003304 0.002471 0.043048
v 0.003473 0.000000 0.043131
v 0.002937 -0.002471 0.042868
v 0.001801 -0.004671 0.042311
v 0.000210 -0.006366 0.041529
v -0.001681 -0.007391 0.040601
v -0.003720 -0.007664 0.039600
v -0.005759 -0.007187 0.038599
v -0.007650 -0.006035 0.037671
v -0.009241 -0.004339 0.036889
v -0.010377 -0.002266 0.036332
v -0.010913 -0.000000 0.036069
v -0.010744 0.002266 0.036152
v -0.009836 0.004339 0.036597
v -0.008245 0.006035 0.037379
v -0.006126 0.007187 0.038419
v -0.006000 0.006600 0.044000
v -0.003950 0.006365 0.045062
v -0.002146 0.005482 0.045997
v -0.000790 0.004022 0.046700
v -0.000017 0.002128 0.047100
v 0.000126 0.000000 0.047175
v -0.000330 -0.002128 0.046938
v -0.001297 -0.004022 0.046437
v -0.002652 -0.005482 0.045735
v -0.004263 -0.006365 0.044900
v -0.006000 -0.006600 0.044000
v -0.007737 -0.006189 0.043100
v -0.009348 -0.005197 0.042265
v -0.010703 -0.003737 0.041563
v -0.011670 -0.001951 0.041062
v -0.012126 -0.000000 0.040825
v -0.011983 0.001951 0.040900
v -0.011210 0.003737 0.041300
v -0.009854 0.005197 0.042003
v -0.008050 0.006189 0.042938
v -0.006000 0.000000 -0.044000
v -0.006000 0.000000 0.044000
f 1 21 2
f 2 21 22
f 2 22 3
f 3 22 23
f 3 23 4
f 4 23 24
f 4 24 5
f 5 24 25
f 5 25 6
f 6 25 26
f 6 26 7
f 7 26 27
f 7 27 8
f 8 27 28
f 8 28 9
f 9 28 29
f 9 29 10
f 10 29 30
f 10 30 11
f 11 30 31
f 11 31 12
f 12 31 32
f 12 32 13
f 13 32 33
f 13 33 14
f 14 33 34
f 14 34 15
f 15 34 35
f 15 35 16
f 16 35 36
f 16 36 17
f 17 36 37
f 17 37 18
f 18 37 38
f 18 38 19
f 19 38 39
f 19 39 20
f 20 39 40
f 20 40 1
f 1 40 21
f 21 41 22
f 22 41 42
f 22 42 23
f 23 42 43
f 23 43 24
f 24 43 44
f 24 44 25
f 25 44 45
f 25 45 26
f 26 45 46
f 26 46 27
f 27 46 47
f 27 47 28
f 28 47 48
f 28 48 29
f 29 48 49
f 29 49 30
f 30 49 50
f 30 50 31
f 31 50 51
f 31 51 32
f 32 51 52
f 32 52 33
f 33 52 53
f 33 53 34
f 34 53 54
f 34 54 35
f 35 54 55
f 35 55 36
f 36 55 56
f 36 56 37
f 37 56 57
f 37 57 38
f 38 57 58
f 38 58 39
f 39 58 59
f 39 59 40
f 40 59 60
f 40 60 21
f 21 60 41
f 41 61 42
f 42 61 62
f 42 62 43
f 43 62 63
f 43 63 44
f 44 63 64
f 44 64 45
f 45 64 65
f 45 65 46
f 46 65 66
f 46 66 47
f 47 66 67
f 47 67 48
f 48 67 68
f 48 68 49
f 49 68 69
f 49 69 50
f 50 69 70
f 50 70 51
f 51 70 71
f 51 71 52
f 52 71 72
f 52 72 53
f 53 72 73
f 53 73 54
f 54 73 74
f 54 74 55
f 55 74 75
f 55 75 56
f 56 75 76
f 56 76 57
f 57 76 77
f 57 77 58
f 58 77 78
f 58 78 59
f 59 78 79
f 59 79 60
f 60 79 80
f 60 80 41
f 41 80 61
f 61 81 62
f 62 81 82
f 62 82 63
f 63 82 83
f 63 83 64
f 64 83 84
f 64 84 65
f 65 84 85
f 65 85 66
f 66 85 86
f 66 86 67
f 67 86 87
f 67 87 68
f 68 87 88
f 68 88 69
f 69 88 89
f 69 89 70
f 70 89 90
f 70 90 71
f 71 90 91
f 71 91 72
f 72 91 92
f 72 92 73
f 73 92 93
f 73 93 74
f 74 93 94
f 74 94 75
f 75 94 95
f 75 95 76
f 76 95 96
f 76 96 77
f 77 96 97
f 77 97 78
f 78 97 98
f 78 98 79
f 79 98 99
f 79 99 80
f 80 99 100
f 80 100 61
f 61 100 81
f 81 101 82
f 82 101 102
f 82 102 83
f 83 102 103
f 83 103 84
f 84 103 104
f 84 104 85
f 85 104 105
f 85 105 86
f 86 105 106
f 86 106 87
f 87 106 107
f 87 107 88
f 88 107 108
f 88 108 89
f 89 108 109
f 89 109 90
f 90 109 110
f 90 110 91
f 91 110 111
f 91 111 92
f 92 111 112
f 92 112 93
f 93 112 113
f 93 113 94
f 94 113 114
f 94 114 95
f 95 114 115
f 95 115 96
f 96 115 116
f 96 116 97
f 97 116 117
f 97 117 98
f 98 117 118
f 98 118 99
f 99 118 119
f 99 119 100
f 100 119 120
f 100 120 81
f 81 120 101
f 101 121 102
f 102 121 122
f 102 122 103
f 103 122 123
f 103 123 104
f 104 123 124
f 104 124 105
f 105 124 125
f 105 125 106
f 106 125 126
f 106 126 107
f 107 126 127
f 107 127 108
f 108 127 128
f 108 128 109
f 109 128 129
f 109 129 110
f 110 129 130
f 110 130 111
f 111 130 131
f 111 131 112
f 112 131 132
f 112 132 113
f 113 132 133
f 113 133 114
f 114 133 134
f 114 134 115
f 115 134 135
f 115 135 116
f 116 135 136
f 116 136 117
f 117 136 137
f 117 137 118
f 118 137 138
f 118 138 119
f 119 138 139
f 119 139 120
f 120 139 140
f 120 140 101
f 101 140 121
f 121 141 122
f 122 141 142
f 122 142 123
f 123 142 143
f 123 143 124
f 124 143 144
f 124 144 125
f 125 144 145
f 125 145 126
f 126 145 146
f 126 146 127
f 127 146 147
f 127 147 128
f 128 147 148
f 128 148 129
f 129 148 149
f 129 149 130
f 130 149 150
f 130 150 131
f 131 150 151
f 131 151 132
f 132 151 152
f 132 152 133
f 133 152 153
f 133 153 134
f 134 153 154
f 134 154 135
f 135 154 155
f 135 155 136
f 136 155 156
f 136 156 137
f 137 156 157
f 137 157 138
f 138 157 158
f 138 158 139
f 139 158 159
f 139 159 140
f 140 159 160
f 140 160 121
f 121 160 141
f 141 161 142
f 142 161 162
f 142 162 143
f 143 162 163
f 143 163 144
f 144 163 164
f 144 164 145
f 145 164 165
f 145 165 146
f 146 165 166
f 146 166 147
f 147 166 167
f 147 167 148
f 148 167 168
f 148 168 149
f 149 168 169
f 149 169 150
f 150 169 170
f 150 170 151
f 151 170 171
f 151 171 152
f 152 171 172
f 152 172 153
f 153 172 173
f 153 173 154
f 154 173 174
f 154 174 155
f 155 174 175
f 155 175 156
f 156 175 176
f 156 176 157
f 157 176 177
f 157 177 158
f 158 177 178
f 158 178 159
f 159 178 179
f 159 179 160
f 160 179 180
f 160 180 141
f 141 180 161
f 161 181 162
f 162 181 182
f 162 182 163
f 163 182 183
f 163 183 164
f 164 183 184
f 164 184 165
f 165 184 185
f 165 185 166
f 166 185 186
f 166 186 167
f 167 186 187
f 167 187 168
f 168 187 188
f 168 188 169
f 169 188 189
f 169 189 170
f 170 189 190
f 170 190 171
f 171 190 191
f 171 191 172
f 172 191 192
f 172 192 173
f 173 192 193
f 173 193 174
f 174 193 194
f 174 194 175
f 175 194 195
f 175 195 176
f 176 195 196
f 176 196 177
f 177 196 197
f 177 197 178
f 178 197 198
f 178 198 179
f 179 198 199
f 179 199 180
f 180 199 200
f 180 200 161
f 161 200 181
f 181 201 182
f 182 201 202
f 182 202 183
f 183 202 203
f 183 203 184
f 184 203 204
f 184 204 185
f 185 204 205
f 185 205 186
f 186 205 206
f 186 206 187
f 187 206 207
f 187 207 188
f 188 207 208
f 188 208 189
f 189 208 209
f 189 209 190
f 190 209 210
f 190 210 191
f 191 210 211
f 191 211 192
f 192 211 212
f 192 212 193
f 193 212 213
f 193 213 194
f 194 213 214
f 194 214 195
f 195 214 215
f 195 215 196
f 196 215 216
f 196 216 197
f 197 216 217
f 197 217 198
f 198 217 218
f 198 218 199
f 199 218 219
f 199 219 200
f 200 219 220
f 200 220 181
f 181 220 201
f 201 221 202
f 202 221 222
f 202 222 203
f 203 222 223
f 203 223 204
f 204 223 224
f 204 224 205
f 205 224 225
f 205 225 206
f 206 225 226
f 206 226 207
f 207 226 227
f 207 227 208
f 208 227 228
f 208 228 209
f 209 228 229
f 209 229 210
f 210 229 230
f 210 230 211
f 211 230 231
f 211 231 212
f 212 231 232
f 212 232 213
f 213 232 233
f 213 233 214
f 214 233 234
f 214 234 215
f 215 234 235
f 215 235 216
f 216 235 236
f 216 236 217
f 217 236 237
f 217 237 218
f 218 237 238
f 218 238 219
f 219 238 239
f 219 239 220
f 220 239 240
f 220 240 201
f 201 240 221
f 221 241 222
f 222 241 242
f 222 242 223
f 223 242 243
f 223 243 224
f 224 243 244
f 224 244 225
f 225 244 245
f 225 245 226
f 226 245 246
f 226 246 227
f 227 246 247
f 227 247 228
f 228 247 248
f 228 248 229
f 229 248 249
f 229 249 230
f 230 249 250
f 230 250 231
f 231 250 251
f 231 251 232
f 232 251 252
f 232 252 233
f 233 252 253
f 233 253 234
f 234 253 254
f 234 254 235
f 235 254 255
f 235 255 236
f 236 255 256
f 236 256 237
f 237 256 257
f 237 257 238
f 238 257 258
f 238 258 239
f 239 258 259
f 239 259 240
f 240 259 260
f 240 260 221
f 221 260 241
f 241 261 242
f 242 261 262
f 242 262 243
f 243 262 263
f 243 263 244
f 244 263 264
f 244 264 245
f 245 264 265
f 245 265 246
f 246 265 266
f 246 266 247
f 247 266 267
f 247 267 248
f 248 267 268
f 248 268 249
f 249 268 269
f 249 269 250
f 250 269 270
f 250 270 251
f 251 270 271
f 251 271 252
f 252 271 272
f 252 272 253
f 253 272 273
f 253 273 254
f 254 273 274
f 254 274 255
f 255 274 275
f 255 275 256
f 256 275 276
f 256 276 257
f 257 276 277
f 257 277 258
f 258 277 278
f 258 278 259
f 259 278 279
f 259 279 260
f 260 279 280
f 260 280 241
f 241 280 261
f 261 281 262
f 262 281 282
f 262 282 263
f 263 282 283
f 263 283 264
f 264 283 284
f 264 284 265
f 265 284 285
f 265 285 266
f 266 285 286
f 266 286 267
f 267 286 287
f 267 287 268
f 268 287 288
f 268 288 269
f 269 288 289
f 269 289 270
f 270 289 290
f 270 290 271
f 271 290 291
f 271 291 272
f 272 291 292
f 272 292 273
f 273 292 293
f 273 293 274
f 274 293 294
f 274 294 275
f 275 294 295
f 275 295 276
f 276 295 296
f 276 296 277
f 277 296 297
f 277 297 278
f 278 297 298
f 278 298 279
f 279 298 299
f 279 299 280
f 280 299 300
f 280 300 261
f 261 300 281
f 281 301 282
f 282 301 302
f 282 302 283
f 283 302 303
f 283 303 284
f 284 303 304
f 284 304 285
f 285 304 305
f 285 305 286
f 286 305 306
f 286 306 287
f 287 306 307
f 287 307 288
f 288 307 308
f 288 308 289
f 289 308 309
f 289 309 290
f 290 309 310
f 290 310 291
f 291 310 311
f 291 311 292
f 292 311 312
f 292 312 293
f 293 312 313
f 293 313 294
f 294 313 314
f 294 314 295
f 295 314 315
f 295 315 296
f 296 315 316
f 296 316 297
f 297 316 317
f 297 317 298
f 298 317 318
f 298 318 299
f 299 318 319
f 299 319 300
f 300 319 320
f 300 320 281
f 281 320 301
f 301 321 302
f 302 321 322
f 302 322 303
f 303 322 323
f 303 323 304
f 304 323 324
f 304 324 305
f 305 324 325
f 305 325 306
f 306 325 326
f 306 326 307
f 307 326 327
f 307 327 308
f 308 327 328
f 308 328 309
f 309 328 329
f 309 329 310
f 310 329 330
f 310 330 311
f 311 330 331
f 311 331 312
f 312 331 332
f 312 332 313
f 313 332 333
f 313 333 314
f 314 333 334
f 314 334 315
f 315 334 335
f 315 335 316
f 316 335 336
f 316 336 317
f 317 336 337
f 317 337 318
f 318 337 338
f 318 338 319
f 319 338 339
f 319 339 320
f 320 339 340
f 320 340 301
f 301 340 321
f 321 341 322
f 322 341 342
f 322 342 323
f 323 342 343
f 323 343 324
f 324 343 344
f 324 344 325
f 325 344 345
f 325 345 326
f 326 345 346
f 326 346 327
f 327 346 347
f 327 347 328
f 328 347 348
f 328 348 329
f 329 348 349
f 329 349 330
f 330 349 350
f 330 350 331
f 331 350 351
f 331 351 332
f 332 351 352
f 332 352 333
f 333 352 353
f 333 353 334
f 334 353 354
f 334 354 335
f 335 354 355
f 335 355 336
f 336 355 356
f 336 356 337
f 337 356 357
f 337 357 338
f 338 357 358
f 338 358 339
f 339 358 359
f 339 359 340
f 340 359 360
f 340 360 321
f 321 360 341
f 341 361 342
f 342 361 362
f 342 362 343
f 343 362 363
f 343 363 344
f 344 363 364
f 344 364 345
f 345 364 365
f 345 365 346
f 346 365 366
f 346 366 347
f 347 366 367
f 347 367 348
f 348 367 368
f 348 368 349
f 349 368 369
f 349 369 350
f 350 369 370
f 350 370 351
f 351 370 371
f 351 371 352
f 352 371 372
f 352 372 353
f 353 372 373
f 353 373 354
f 354 373 374
f 354 374 355
f 355 374 375
f 355 375 356
f 356 375 376
f 356 376 357
f 357 376 377
f 357 377 358
f 358 377 378
f 358 378 359
f 359 378 379
f 359 379 360
f 360 379 380
f 360 380 341
f 341 380 361
f 361 381 362
f 362 381 382
f 362 382 363
f 363 382 383
f 363 383 364
f 364 383 384
f 364 384 365
f 365 384 385
f 365 385 366
f 366 385 386
f 366 386 367
f 367 386 387
f 367 387 368
f 368 387 388
f 368 388 369
f 369 388 389
f 369 389 370
f 370 389 390
f 370 390 371
f 371 390 391
f 371 391 372
f 372 391 392
f 372 392 373
f 373 392 393
f 373 393 374
f 374 393 394
f 374 394 375
f 375 394 395
f 375 395 376
f 376 395 396
f 376 396 377
f 377 396 397
f 377 397 378
f 378 397 398
f 378 398 379
f 379 398 399
f 379 399 380
f 380 399 400
f 380 400 361
f 361 400 381
f 381 401 382
f 382 401 402
f 382 402 383
f 383 402 403
f 383 403 384
f 384 403 404
f 384 404 385
f 385 404 405
f 385 405 386
f 386 405 406
f 386 406 387
f 387 406 407
f 387 407 388
f 388 407 408
f 388 408 389
f 389 408 409
f 389 409 390
f 390 409 410
f 390 410 391
f 391 410 411
f 391 411 392
f 392 411 412
f 392 412 393
f 393 412 413
f 393 413 394
f 394 413 414
f 394 414 395
f 395 414 415
f 395 415 396
f 396 415 416
f 396 416 397
f 397 416 417
f 397 417 398
f 398 417 418
f 398 418 399
f 399 418 419
f 399 419 400
f 400 419 420
f 400 420 381
f 381 420 401
f 421 2 1
f 422 401 402
f 421 3 2
f 422 402 403
f 421 4 3
f 422 403 404
f 421 5 4
f 422 404 405
f 421 6 5
f 422 405 406
f 421 7 6
f 422 406 407
f 421 8 7
f 422 407 408
f 421 9 8
f 422 408 409
f 421 10 9
f 422 409 410
f 421 11 10
f 422 410 411
f 421 12 11
f 422 411 412
f 421 13 12
f 422 412 413
f 421 14 13
f 422 413 414
f 421 15 14
f 422 414 415
f 421 16 15
f 422 415 416
f 421 17 16
f 422 416 417
f 421 18 17
f 422 417 418
f 421 19 18
f 422 418 419
f 421 20 19
f 422 419 420
f 421 1 20
f 422 420 401
